HIERARCHY
ROOT Hips
{
  OFFSET -29.7328 93.6951 -235.98
  CHANNELS 6 Xposition Yposition Zposition Zrotation Xrotation Yrotation
  JOINT LeftUpLeg
  {
    OFFSET 8.91 -6.27 -2.145
    CHANNELS 6 Xposition Yposition Zposition Zrotation Xrotation Yrotation
    JOINT LeftUpLegRoll
    {
      OFFSET 0 -22.7323 0
      CHANNELS 6 Xposition Yposition Zposition Zrotation Xrotation Yrotation
      JOINT LeftLeg
      {
        OFFSET 0 -22.1464 0
        CHANNELS 6 Xposition Yposition Zposition Zrotation Xrotation Yrotation
        JOINT LeftLegRoll
        {
          OFFSET 0 -22.0919 0
          CHANNELS 6 Xposition Yposition Zposition Zrotation Xrotation Yrotation
          JOINT LeftFoot
          {
            OFFSET 0 -18.609 0
            CHANNELS 6 Xposition Yposition Zposition Zrotation Xrotation Yrotation
            JOINT LeftToeBase
            {
              OFFSET 0 -6.26232 12.9547
              CHANNELS 6 Xposition Yposition Zposition Zrotation Xrotation Yrotation
              End Site
              {
                OFFSET 0 0 5.96686
              }
            }
          }
        }
      }
    }
  }
  JOINT RightUpLeg
  {
    OFFSET -8.91 -6.27 -2.145
    CHANNELS 6 Xposition Yposition Zposition Zrotation Xrotation Yrotation
    JOINT RightUpLegRoll
    {
      OFFSET 0 -22.7323 0
      CHANNELS 6 Xposition Yposition Zposition Zrotation Xrotation Yrotation
      JOINT RightLeg
      {
        OFFSET 0 -22.1464 0
        CHANNELS 6 Xposition Yposition Zposition Zrotation Xrotation Yrotation
        JOINT RightLegRoll
        {
          OFFSET 0 -22.0919 0
          CHANNELS 6 Xposition Yposition Zposition Zrotation Xrotation Yrotation
          JOINT RightFoot
          {
            OFFSET 0 -18.609 0
            CHANNELS 6 Xposition Yposition Zposition Zrotation Xrotation Yrotation
            JOINT RightToeBase
            {
              OFFSET 0 -6.26232 12.9547
              CHANNELS 6 Xposition Yposition Zposition Zrotation Xrotation Yrotation
              End Site
              {
                OFFSET 0 0.000942417 5.96686
              }
            }
          }
        }
      }
    }
  }
  JOINT Spine
  {
    OFFSET 0 7.43174 -2.06162
    CHANNELS 6 Xposition Yposition Zposition Zrotation Xrotation Yrotation
    JOINT Spine1
    {
      OFFSET -1.68772e-005 12.1899 -1.41951
      CHANNELS 6 Xposition Yposition Zposition Zrotation Xrotation Yrotation
      JOINT Spine2
      {
        OFFSET 0 11.8846 -1.0903
        CHANNELS 6 Xposition Yposition Zposition Zrotation Xrotation Yrotation
        JOINT Spine3
        {
          OFFSET 1.84329e-005 10.5137 1.04001
          CHANNELS 6 Xposition Yposition Zposition Zrotation Xrotation Yrotation
          JOINT LeftShoulder
          {
            OFFSET 7 4.56855 2.0674
            CHANNELS 6 Xposition Yposition Zposition Zrotation Xrotation Yrotation
            JOINT LeftArm
            {
              OFFSET 10.7073 0 0
              CHANNELS 6 Xposition Yposition Zposition Zrotation Xrotation Yrotation
              JOINT LeftArmRoll
              {
                OFFSET 15.2612 0 0
                CHANNELS 6 Xposition Yposition Zposition Zrotation Xrotation Yrotation
                JOINT LeftForeArm
                {
                  OFFSET 12.0443 0 0
                  CHANNELS 6 Xposition Yposition Zposition Zrotation Xrotation Yrotation
                  JOINT LeftForeArmRoll
                  {
                    OFFSET 16.3277 0 0
                    CHANNELS 6 Xposition Yposition Zposition Zrotation Xrotation Yrotation
                    JOINT LeftHand
                    {
                      OFFSET 10.3694 0 0
                      CHANNELS 6 Xposition Yposition Zposition Zrotation Xrotation Yrotation
                      JOINT LeftHandThumb1
                      {
                        OFFSET 4.34876 -0.798502 4.28243
                        CHANNELS 6 Xposition Yposition Zposition Zrotation Xrotation Yrotation
                        JOINT LeftHandThumb2
                        {
                          OFFSET 2.51259 -0.536099 0.707454
                          CHANNELS 6 Xposition Yposition Zposition Zrotation Xrotation Yrotation
                          JOINT LeftHandThumb3
                          {
                            OFFSET 2.54314 0 0
                            CHANNELS 6 Xposition Yposition Zposition Zrotation Xrotation Yrotation
                            JOINT LeftHandThumb4
                            {
                              OFFSET 2.66675 0 0
                              CHANNELS 6 Xposition Yposition Zposition Zrotation Xrotation Yrotation
                              End Site
                              {
                                OFFSET 0 0 0
                              }
                            }
                          }
                        }
                      }
                      JOINT LeftHandIndex1
                      {
                        OFFSET 8.82198 0.199729 3.47167
                        CHANNELS 6 Xposition Yposition Zposition Zrotation Xrotation Yrotation
                        JOINT LeftHandIndex2
                        {
                          OFFSET 4.22532 0 -0.000262656
                          CHANNELS 6 Xposition Yposition Zposition Zrotation Xrotation Yrotation
                          JOINT LeftHandIndex3
                          {
                            OFFSET 2.65394 0 -0.00016516
                            CHANNELS 6 Xposition Yposition Zposition Zrotation Xrotation Yrotation
                            JOINT LeftHandIndex4
                            {
                              OFFSET 1.95822 0 -0.00012217
                              CHANNELS 6 Xposition Yposition Zposition Zrotation Xrotation Yrotation
                              End Site
                              {
                                OFFSET 0 0 0
                              }
                            }
                          }
                        }
                      }
                      JOINT LeftHandMiddle1
                      {
                        OFFSET 8.80988 0.50089 1.30468
                        CHANNELS 6 Xposition Yposition Zposition Zrotation Xrotation Yrotation
                        JOINT LeftHandMiddle2
                        {
                          OFFSET 4.86325 0 0
                          CHANNELS 6 Xposition Yposition Zposition Zrotation Xrotation Yrotation
                          JOINT LeftHandMiddle3
                          {
                            OFFSET 2.76524 0 0
                            CHANNELS 6 Xposition Yposition Zposition Zrotation Xrotation Yrotation
                            JOINT LeftHandMiddle4
                            {
                              OFFSET 2.00563 0 0
                              CHANNELS 6 Xposition Yposition Zposition Zrotation Xrotation Yrotation
                              End Site
                              {
                                OFFSET 0 0 0
                              }
                            }
                          }
                        }
                      }
                      JOINT LeftHandRing1
                      {
                        OFFSET 8.89376 0.37992 -0.793159
                        CHANNELS 6 Xposition Yposition Zposition Zrotation Xrotation Yrotation
                        JOINT LeftHandRing2
                        {
                          OFFSET 4.53776 0 -0.000282138
                          CHANNELS 6 Xposition Yposition Zposition Zrotation Xrotation Yrotation
                          JOINT LeftHandRing3
                          {
                            OFFSET 2.30453 0 -0.000143448
                            CHANNELS 6 Xposition Yposition Zposition Zrotation Xrotation Yrotation
                            JOINT LeftHandRing4
                            {
                              OFFSET 1.92335 0 -0.00012044
                              CHANNELS 6 Xposition Yposition Zposition Zrotation Xrotation Yrotation
                              End Site
                              {
                                OFFSET 0 0 0
                              }
                            }
                          }
                        }
                      }
                      JOINT LeftHandPinky1
                      {
                        OFFSET 8.88227 -0.313027 -2.49036
                        CHANNELS 6 Xposition Yposition Zposition Zrotation Xrotation Yrotation
                        JOINT LeftHandPinky2
                        {
                          OFFSET 3.0441 0 0
                          CHANNELS 6 Xposition Yposition Zposition Zrotation Xrotation Yrotation
                          JOINT LeftHandPinky3
                          {
                            OFFSET 1.9745 0 0
                            CHANNELS 6 Xposition Yposition Zposition Zrotation Xrotation Yrotation
                            JOINT LeftHandPinky4
                            {
                              OFFSET 1.66661 0 0
                              CHANNELS 6 Xposition Yposition Zposition Zrotation Xrotation Yrotation
                              End Site
                              {
                                OFFSET 0 0 0
                              }
                            }
                          }
                        }
                      }
                    }
                  }
                }
              }
            }
          }
          JOINT RightShoulder
          {
            OFFSET -7 4.56855 2.0673
            CHANNELS 6 Xposition Yposition Zposition Zrotation Xrotation Yrotation
            JOINT RightArm
            {
              OFFSET -10.7073 0 0
              CHANNELS 6 Xposition Yposition Zposition Zrotation Xrotation Yrotation
              JOINT RightArmRoll
              {
                OFFSET -15.2612 0 0
                CHANNELS 6 Xposition Yposition Zposition Zrotation Xrotation Yrotation
                JOINT RightForeArm
                {
                  OFFSET -12.0444 0 0
                  CHANNELS 6 Xposition Yposition Zposition Zrotation Xrotation Yrotation
                  JOINT RightForeArmRoll
                  {
                    OFFSET -16.3276 0 0
                    CHANNELS 6 Xposition Yposition Zposition Zrotation Xrotation Yrotation
                    JOINT RightHand
                    {
                      OFFSET -10.3694 0 0
                      CHANNELS 6 Xposition Yposition Zposition Zrotation Xrotation Yrotation
                      JOINT RightHandThumb1
                      {
                        OFFSET -4.34838 -0.798501 4.28282
                        CHANNELS 6 Xposition Yposition Zposition Zrotation Xrotation Yrotation
                        JOINT RightHandThumb2
                        {
                          OFFSET -2.51253 -0.536099 0.707679
                          CHANNELS 6 Xposition Yposition Zposition Zrotation Xrotation Yrotation
                          JOINT RightHandThumb3
                          {
                            OFFSET -2.54159 0 0.0888232
                            CHANNELS 6 Xposition Yposition Zposition Zrotation Xrotation Yrotation
                            JOINT RightHandThumb4
                            {
                              OFFSET -2.66512 0 0.0931403
                              CHANNELS 6 Xposition Yposition Zposition Zrotation Xrotation Yrotation
                              End Site
                              {
                                OFFSET 0 0 0
                              }
                            }
                          }
                        }
                      }
                      JOINT RightHandIndex1
                      {
                        OFFSET -8.82167 0.199732 3.47246
                        CHANNELS 6 Xposition Yposition Zposition Zrotation Xrotation Yrotation
                        JOINT RightHandIndex2
                        {
                          OFFSET -4.22532 0 0.0001146
                          CHANNELS 6 Xposition Yposition Zposition Zrotation Xrotation Yrotation
                          JOINT RightHandIndex3
                          {
                            OFFSET -2.65394 0 7.19601e-005
                            CHANNELS 6 Xposition Yposition Zposition Zrotation Xrotation Yrotation
                            JOINT RightHandIndex4
                            {
                              OFFSET -1.95822 0 5.30956e-005
                              CHANNELS 6 Xposition Yposition Zposition Zrotation Xrotation Yrotation
                              End Site
                              {
                                OFFSET 0 0 0
                              }
                            }
                          }
                        }
                      }
                      JOINT RightHandMiddle1
                      {
                        OFFSET -8.80976 0.500893 1.30547
                        CHANNELS 6 Xposition Yposition Zposition Zrotation Xrotation Yrotation
                        JOINT RightHandMiddle2
                        {
                          OFFSET -4.86325 0 0.000131881
                          CHANNELS 6 Xposition Yposition Zposition Zrotation Xrotation Yrotation
                          JOINT RightHandMiddle3
                          {
                            OFFSET -2.76524 0 7.49854e-005
                            CHANNELS 6 Xposition Yposition Zposition Zrotation Xrotation Yrotation
                            JOINT RightHandMiddle4
                            {
                              OFFSET -2.00563 0 5.43888e-005
                              CHANNELS 6 Xposition Yposition Zposition Zrotation Xrotation Yrotation
                              End Site
                              {
                                OFFSET 0 0 0
                              }
                            }
                          }
                        }
                      }
                      JOINT RightHandRing1
                      {
                        OFFSET -8.89383 0.379922 -0.792364
                        CHANNELS 6 Xposition Yposition Zposition Zrotation Xrotation Yrotation
                        JOINT RightHandRing2
                        {
                          OFFSET -4.53776 0 0.000123049
                          CHANNELS 6 Xposition Yposition Zposition Zrotation Xrotation Yrotation
                          JOINT RightHandRing3
                          {
                            OFFSET -2.30453 0 6.24859e-005
                            CHANNELS 6 Xposition Yposition Zposition Zrotation Xrotation Yrotation
                            JOINT RightHandRing4
                            {
                              OFFSET -1.92335 0 5.21537e-005
                              CHANNELS 6 Xposition Yposition Zposition Zrotation Xrotation Yrotation
                              End Site
                              {
                                OFFSET 0 0 0
                              }
                            }
                          }
                        }
                      }
                      JOINT RightHandPinky1
                      {
                        OFFSET -8.8825 -0.313025 -2.48956
                        CHANNELS 6 Xposition Yposition Zposition Zrotation Xrotation Yrotation
                        JOINT RightHandPinky2
                        {
                          OFFSET -3.0478 0 8.26466e-005
                          CHANNELS 6 Xposition Yposition Zposition Zrotation Xrotation Yrotation
                          JOINT RightHandPinky3
                          {
                            OFFSET -1.9769 0 5.36145e-005
                            CHANNELS 6 Xposition Yposition Zposition Zrotation Xrotation Yrotation
                            JOINT RightHandPinky4
                            {
                              OFFSET -1.66864 0 4.5245e-005
                              CHANNELS 6 Xposition Yposition Zposition Zrotation Xrotation Yrotation
                              End Site
                              {
                                OFFSET 0 0 0
                              }
                            }
                          }
                        }
                      }
                    }
                  }
                }
              }
            }
          }
          JOINT Neck
          {
            OFFSET 0 11.5156 1.94702
            CHANNELS 6 Xposition Yposition Zposition Zrotation Xrotation Yrotation
            JOINT Head
            {
              OFFSET -1.26215e-005 11.0733 1.65432
              CHANNELS 6 Xposition Yposition Zposition Zrotation Xrotation Yrotation
              End Site
              {
                OFFSET 0 17.7047 0
              }
            }
          }
        }
      }
    }
  }
}
MOTION
Frames:	2
Frame Time:	0.0333333
-16.3792 84.8651 -169.054 -0.793258 15.4455 -11.6993 8.91 -6.27 -2.145 -4.6688 -7.2463 8.88885 -8.88178e-015 -22.7323 -4.71169e-007 3.07046e-017 -4.63144e-016 7.58587 -1.24345e-014 -22.1464 5.17666e-008 180 70.2747 -175.17 -8.88178e-015 -22.0919 1.36431e-008 5.38894e-018 -1.9438e-016 3.17609 -1.42109e-014 -18.609 1.69696e-008 -1.76847 15.9365 0.247563 5.32907e-015 -6.26232 12.9547 -4.2906e-007 -1.04696e-007 -7.8402e-016 -8.91 -6.27 -2.145 14.663 -56.0471 10.8429 -2.71633e-006 -22.7323 -4.51374e-007 1.81074e-019 -3.56443e-017 0.582125 -4.24549e-013 -22.1464 1.4554e-008 -2.68113e-006 61.9522 -1.00144 9.19562e-007 -22.0919 4.09714e-008 1.01248e-018 -8.42809e-017 1.37654 -3.606e-013 -18.609 -7.98564e-010 -3.02666 -18.0791 -0.486305 -6.4416e-011 -6.26232 12.9547 2.39382 -0.901357 0.0376791 2.32301e-006 7.43174 -2.06162 4.33489 4.07132 -2.55877 -1.68772e-005 12.1899 -1.41951 2.84092 -1.25386 -2.34956 -3.87879e-006 11.8846 -1.0903 2.97486 -1.26694 -2.16554 1.84329e-005 10.5137 1.04001 3.10373 -1.2584 -1.97779 7 4.56855 2.0674 -18.3691 0 6.98866 10.7073 -5.08749e-012 -5.32907e-015 -63.487 16.0454 9.63058 15.2612 3.95062e-012 1.16365e-008 -0 19.3947 0 12.0443 -1.25056e-012 2.87898e-009 25.1576 19.3769 -54.7616 16.3277 2.84217e-012 -1.18649e-008 0 -7.46808 0 10.3694 3.12639e-013 2.29894e-008 10.7343 0.284046 3.0227 4.34876 -0.798502 4.28243 -11.3353 5.42235 10.9137 2.51259 -0.536099 0.707454 -30.5028 -1.01547 1.72312 2.54314 9.9476e-013 9.34198e-006 -26.1476 0 0 2.66675 -1.27898e-012 -8.21025e-006 -0 0 0 8.82198 0.199729 3.47167 -29.7915 -0.993994 0.603257 4.22532 4.83737e-011 -0.000262656 -112.622 0 0 2.65394 2.98712e-011 -0.00016516 -52.9585 0 0 1.95822 2.2311e-011 -0.00012217 -0 0 0 8.80988 0.50089 1.30468 -33.0931 -1.09231 5.25928 4.86325 1.10845e-012 6.11217e-012 -111.158 0 0 2.76524 3.69482e-013 -1.91784e-007 -50.9269 0 0 2.00563 -8.52651e-013 -1.13863e-006 -0 0 0 8.89376 0.37992 -0.793159 -32.0559 -1.0618 0.629387 4.53776 8.2423e-013 -0.000282138 -103.21 0 0 2.30453 0 -0.000143448 -43.5644 0 0 1.92335 -4.26326e-013 -0.00012044 -0 0 0 8.88227 -0.313027 -2.49036 -5.94898 -0.207369 4.09879 3.0441 -2.04636e-012 1.33227e-015 -96.3249 0 0 1.9745 2.84217e-013 -1.43329e-007 -38.1985 0 0 1.66661 1.64846e-012 7.91347e-007 -0 0 0 -7 4.56855 2.0673 12.6037 4.80184e-016 5.08301 -10.7073 5.20117e-012 2.04281e-014 49.571 9.96705 -16.319 -15.2612 -6.33804e-012 1.86659e-008 1.87437e-015 17.5268 1.87437e-015 -12.0444 -8.46967e-012 -7.98782e-009 -12.2006 10.9609 48.6723 -16.3276 -1.11982e-011 -2.36264e-008 -7.83757e-006 -7.85457 -2.73443e-006 -10.3694 -8.52651e-014 1.64166e-008 -23.6743 -0.820116 3.9116 -4.34838 -0.798501 4.28282 11.331 5.42212 -10.9131 -2.51253 -0.536099 0.707679 29.2193 -0.97661 -1.74543 -2.54159 2.76827e-011 0.0888232 24.8368 0 0 -2.66512 1.86731e-011 0.0931403 0 0 -0 -8.82167 0.199732 3.47246 29.7912 -0.993986 -0.605762 -4.22532 2.47269e-012 0.0001146 112.622 0 0 -2.65394 1.39266e-012 7.19601e-005 52.9584 0 0 -1.95822 1.36424e-012 5.30956e-005 0 0 -0 -8.80976 0.500893 1.30547 33.0111 -1.08992 -3.26718 -4.86325 -1.3074e-012 0.000131881 111.073 0 0 -2.76524 1.76215e-012 7.49854e-005 51.0729 0 0 -2.00563 0 5.43888e-005 0 0 -0 -8.89383 0.379922 -0.792364 32.4514 -1.07348 1.33472 -4.53776 4.09273e-012 0.000123049 102.94 0 0 -2.30453 4.12115e-012 6.24859e-005 43.1189 0 0 -1.92335 7.38964e-013 5.21537e-005 0 0 -0 -8.8825 -0.313025 -2.48956 5.87702 -0.204869 -2.10354 -3.0478 -6.65921e-011 8.26466e-005 96.0519 0 0 -1.9769 -3.85683e-011 5.36145e-005 38.4021 0 0 -1.66864 -3.54419e-011 4.5245e-005 0 0 -0 2.32301e-006 11.5156 1.94702 -5.80867 -18.6713 13.254 -1.26215e-005 11.0733 1.65432 0.324133 -1.47142 11.6447 
-16.522 84.4607 -164.987 -1.1619 15.5871 -11.4941 8.91 -6.27 -2.145 -2.73163 -11.8761 9.53164 -8.88178e-015 -22.7323 -4.71169e-007 2.84248e-017 -4.45691e-016 7.29841 -1.24345e-014 -22.1464 5.17666e-008 180 65.5516 -175.94 -8.88178e-015 -22.0919 1.36431e-008 5.8555e-018 -2.02613e-016 3.31076 -1.42109e-014 -18.609 1.69696e-008 3.00618 14.6798 -0.387319 5.32907e-015 -6.26232 12.9547 -4.2906e-007 -1.04696e-007 -7.8402e-016 -8.91 -6.27 -2.145 13.9836 -54.4622 10.2322 -2.71633e-006 -22.7323 -4.51374e-007 2.28224e-019 -4.00166e-017 0.653536 -4.24549e-013 -22.1464 1.4554e-008 -3.05772e-006 64.8625 -0.998457 9.19562e-007 -22.0919 4.09714e-008 6.78545e-019 -6.89978e-017 1.12689 -3.606e-013 -18.609 -7.98564e-010 -2.60978 -22.7454 -0.529783 -6.4416e-011 -6.26232 12.9547 1.45948 -0.413943 0.0105465 2.32301e-006 7.43174 -2.06162 4.51615 4.08511 -2.35949 -1.68772e-005 12.1899 -1.41951 2.76561 -1.31979 -2.05754 -3.87879e-006 11.8846 -1.0903 2.88375 -1.33477 -1.87345 1.84329e-005 10.5137 1.04001 2.99715 -1.32975 -1.68596 7 4.56855 2.0674 -18.534 0 6.97276 10.7073 -5.08749e-012 -5.32907e-015 -64.9253 15.0234 10.4337 15.2612 3.95062e-012 1.16365e-008 -0 18.2994 0 12.0443 -1.25056e-012 2.87898e-009 29.3058 27.1495 -50.8906 16.3277 2.84217e-012 -1.18649e-008 0 -8.84737 0 10.3694 3.12639e-013 2.29894e-008 5.39864 0.3144 6.66101 4.34876 -0.798502 4.28243 -11.3348 5.42329 10.9192 2.51259 -0.536099 0.707454 -30.5095 -1.01567 1.723 2.54314 9.9476e-013 9.34198e-006 -26.2021 0 0 2.66675 -1.27898e-012 -8.21025e-006 -0 0 0 8.82198 0.199729 3.47167 -29.7405 -0.99245 0.604141 4.22532 4.83737e-011 -0.000262656 -112.645 0 0 2.65394 2.98712e-011 -0.00016516 -52.9704 0 0 1.95822 2.2311e-011 -0.00012217 -0 0 0 8.80988 0.50089 1.30468 -33.0651 -1.09149 5.25981 4.86325 1.10845e-012 6.11217e-012 -111.183 0 0 2.76524 3.69482e-013 -1.91784e-007 -50.9251 0 0 2.00563 -8.52651e-013 -1.13863e-006 -0 0 0 8.89376 0.37992 -0.793159 -32.0563 -1.06181 0.626976 4.53776 8.2423e-013 -0.000282138 -103.228 0 0 2.30453 0 -0.000143448 -43.5646 0 0 1.92335 -4.26326e-013 -0.00012044 -0 0 0 8.88227 -0.313027 -2.49036 -5.944 -0.207196 4.09682 3.0441 -2.04636e-012 1.33227e-015 -96.3459 0 0 1.9745 2.84217e-013 -1.43329e-007 -38.2033 0 0 1.66661 1.64846e-012 7.91347e-007 -0 0 0 -7 4.56855 2.0673 12.5855 5.30663e-016 5.45835 -10.7073 5.20117e-012 2.04281e-014 49.8713 10.3229 -15.0568 -15.2612 -6.33804e-012 1.86659e-008 1.88493e-015 17.6391 1.88493e-015 -12.0444 -8.46967e-012 -7.98782e-009 -12.3888 9.49405 53.0967 -16.3276 -1.11982e-011 -2.36264e-008 -7.79034e-006 -6.87195 -2.72838e-006 -10.3694 -8.52651e-014 1.64166e-008 -24.0856 -0.284414 1.33317 -4.34838 -0.798501 4.28282 11.3305 5.42308 -10.9187 -2.51253 -0.536099 0.707679 29.2259 -0.976811 -1.74532 -2.54159 2.76827e-011 0.0888232 24.8999 0 0 -2.66512 1.86731e-011 0.0931403 0 0 -0 -8.82167 0.199732 3.47246 29.796 -0.99413 -0.606878 -4.22532 2.47269e-012 0.0001146 112.647 0 0 -2.65394 1.39266e-012 7.19601e-005 52.9718 0 0 -1.95822 1.36424e-012 5.30956e-005 0 0 -0 -8.80976 0.500893 1.30547 33.019 -1.09015 -3.26838 -4.86325 -1.3074e-012 0.000131881 111.1 0 0 -2.76524 1.76215e-012 7.49854e-005 51.0715 0 0 -2.00563 0 5.43888e-005 0 0 -0 -8.89383 0.379922 -0.792364 32.4595 -1.07372 1.33652 -4.53776 4.09273e-012 0.000123049 102.964 0 0 -2.30453 4.12115e-012 6.24859e-005 43.1243 0 0 -1.92335 7.38964e-013 5.21537e-005 0 0 -0 -8.8825 -0.313025 -2.48956 5.90838 -0.205959 -2.10342 -3.0478 -6.65921e-011 8.26466e-005 96.0728 0 0 -1.9769 -3.85683e-011 5.36145e-005 38.4064 0 0 -1.66864 -3.54419e-011 4.5245e-005 0 0 -0 2.32301e-006 11.5156 1.94702 -5.67638 -18.9974 13.1276 -1.26215e-005 11.0733 1.65432 0.138528 -1.17218 11.5371 
